<svg xmlns="http://www.w3.org/2000/svg" width="96" height="96" fill="none" viewBox="0 0 96 96"><path fill="#fff" stroke="#BFBFBF" d="M94 9.5C94.8284 9.5 95.5 10.1716 95.5 11L95.5 85C95.5 85.8284 94.8284 86.5 94 86.5L2 86.5C1.17157 86.5 0.499997 85.8284 0.499997 85L0.5 11C0.5 10.1716 1.17158 9.5 2 9.5L94 9.5Z"/><rect width="64" height="8" x="16" y="25" fill="#444" opacity=".4" rx="1"/><rect width="4" height="4" x="54" y="45" fill="#444" opacity=".4" rx="1"/><rect width="4" height="4" x="54" y="53" fill="#444" opacity=".4" rx="1"/><rect width="4" height="4" x="54" y="61" fill="#444" opacity=".4" rx="1"/><rect width="20" height="4" x="60" y="45" fill="#444" opacity=".2" rx="1"/><rect width="20" height="4" x="60" y="53" fill="#444" opacity=".2" rx="1"/><rect width="20" height="4" x="60" y="61" fill="#444" opacity=".2" rx="1"/><path fill="#444" d="M44 56C44 58.7689 43.1789 61.4757 41.6406 63.778C40.1022 66.0803 37.9157 67.8747 35.3576 68.9343C32.7994 69.9939 29.9845 70.2712 27.2687 69.731C24.553 69.1908 22.0584 67.8574 20.1005 65.8995C18.1426 63.9416 16.8092 61.447 16.269 58.7313C15.7288 56.0155 16.0061 53.2006 17.0657 50.6424C18.1253 48.0843 19.9197 45.8978 22.222 44.3594C24.5243 42.8211 27.2311 42 30 42V56H44Z" opacity=".2"/><path fill="#444" d="M32 40C33.8385 40 35.659 40.3621 37.3576 41.0657C39.0561 41.7693 40.5995 42.8005 41.8995 44.1005C43.1995 45.4005 44.2307 46.9439 44.9343 48.6424C45.6379 50.341 46 52.1615 46 54L32 54L32 40Z" opacity=".4"/></svg>