<svg xmlns="http://www.w3.org/2000/svg" width="96" height="96" fill="none" viewBox="0 0 96 96"><path fill="#fff" stroke="#bfbfbf" d="m85 95.5h-74c-.8284 0-1.5-.6716-1.5-1.5v-92c0-.82843.6716-1.5 1.5-1.5h74c.8284 0 1.5.67157 1.5 1.5v92c0 .8284-.6716 1.5-1.5 1.5z"/><g fill="#444"><rect width="46" height="4" x="25" y="32" opacity=".2" rx="1"/><rect width="46" height="6" x="25" y="20" opacity=".4" rx="1"/><rect width="16" height="20" x="55" y="40" opacity=".2" rx="1"/><rect width="26" height="4" x="25" y="40" opacity=".2" rx="1"/><rect width="26" height="4" x="25" y="48" opacity=".2" rx="1"/><rect width="26" height="4" x="25" y="56" opacity=".2" rx="1"/><rect width="46" height="4" x="25" y="64" opacity=".2" rx="1"/><rect width="46" height="4" x="25" y="72" opacity=".2" rx="1"/></g></svg>