<svg xmlns="http://www.w3.org/2000/svg" xmlns:xlink="http://www.w3.org/1999/xlink" aria-hidden="true" style="position:absolute;width:0;height:0;overflow:hidden" version="1.1"><symbol id="bar-solid-blue" viewBox="0 0 25 25"><rect id="Rectangle 874" width="20" height="5" x="2.5" y="2.5" fill="#fff" stroke="#888"/><rect id="Rectangle 878" width="20" height="5" x="2.5" y="7.5" fill="#fff" stroke="#888"/><rect id="Rectangle 882" width="20" height="5" x="2.5" y="12.5" fill="#fff" stroke="#888"/><rect id="Rectangle 879" width="5" height="4" x="3" y="8" fill="#4D82B8"/><rect id="Rectangle 883" width="10" height="4" x="3" y="13" fill="#4D82B8"/><rect id="Rectangle 880" width="14" height="4" x="3" y="3" fill="#4D82B8"/><rect id="Rectangle 882_2" width="20" height="5" x="2.5" y="17.5" fill="#fff" stroke="#888"/><rect id="Rectangle 883_2" width="19" height="4" x="3" y="18" fill="#4D82B8"/></symbol><symbol id="bar-solid-green" viewBox="0 0 25 25"><rect id="Rectangle 874" width="20" height="5" x="2.5" y="2.5" fill="#fff" stroke="#888"/><rect id="Rectangle 878" width="20" height="5" x="2.5" y="7.5" fill="#fff" stroke="#888"/><rect id="Rectangle 882" width="20" height="5" x="2.5" y="12.5" fill="#fff" stroke="#888"/><rect id="Rectangle 879" width="5" height="4" x="3" y="8" fill="#63C384"/><rect id="Rectangle 883" width="10" height="4" x="3" y="13" fill="#63C384"/><rect id="Rectangle 880" width="14" height="4" x="3" y="3" fill="#63C384"/><rect id="Rectangle 882_2" width="20" height="5" x="2.5" y="17.5" fill="#fff" stroke="#888"/><rect id="Rectangle 883_2" width="19" height="4" x="3" y="18" fill="#63C384"/></symbol><symbol id="bar-solid-lightblue" viewBox="0 0 25 25"><rect id="Rectangle 874" width="20" height="5" x="2.5" y="2.5" fill="#fff" stroke="#888"/><rect id="Rectangle 878" width="20" height="5" x="2.5" y="7.5" fill="#fff" stroke="#888"/><rect id="Rectangle 882" width="20" height="5" x="2.5" y="12.5" fill="#fff" stroke="#888"/><rect id="Rectangle 879" width="5" height="4" x="3" y="8" fill="#008AEF"/><rect id="Rectangle 883" width="10" height="4" x="3" y="13" fill="#008AEF"/><rect id="Rectangle 880" width="14" height="4" x="3" y="3" fill="#008AEF"/><rect id="Rectangle 882_2" width="20" height="5" x="2.5" y="17.5" fill="#fff" stroke="#888"/><rect id="Rectangle 883_2" width="19" height="4" x="3" y="18" fill="#008AEF"/></symbol><symbol id="bar-solid-purple" viewBox="0 0 25 25"><rect id="Rectangle 874" width="20" height="5" x="2.5" y="2.5" fill="#fff" stroke="#888"/><rect id="Rectangle 878" width="20" height="5" x="2.5" y="7.5" fill="#fff" stroke="#888"/><rect id="Rectangle 882" width="20" height="5" x="2.5" y="12.5" fill="#fff" stroke="#888"/><rect id="Rectangle 879" width="5" height="4" x="3" y="8" fill="#D6007B"/><rect id="Rectangle 883" width="10" height="4" x="3" y="13" fill="#D6007B"/><rect id="Rectangle 880" width="14" height="4" x="3" y="3" fill="#D6007B"/><rect id="Rectangle 882_2" width="20" height="5" x="2.5" y="17.5" fill="#fff" stroke="#888"/><rect id="Rectangle 883_2" width="19" height="4" x="3" y="18" fill="#D6007B"/></symbol><symbol id="bar-solid-red" viewBox="0 0 25 25"><rect id="Rectangle 874" width="20" height="5" x="2.5" y="2.5" fill="#fff" stroke="#888"/><rect id="Rectangle 878" width="20" height="5" x="2.5" y="7.5" fill="#fff" stroke="#888"/><rect id="Rectangle 882" width="20" height="5" x="2.5" y="12.5" fill="#fff" stroke="#888"/><rect id="Rectangle 879" width="5" height="4" x="3" y="8" fill="#FF555A"/><rect id="Rectangle 883" width="10" height="4" x="3" y="13" fill="#FF555A"/><rect id="Rectangle 880" width="14" height="4" x="3" y="3" fill="#FF555A"/><rect id="Rectangle 882_2" width="20" height="5" x="2.5" y="17.5" fill="#fff" stroke="#888"/><rect id="Rectangle 883_2" width="19" height="4" x="3" y="18" fill="#FF555A"/></symbol><symbol id="bar-solid-yellow" viewBox="0 0 25 25"><rect id="Rectangle 874" width="20" height="5" x="2.5" y="2.5" fill="#fff" stroke="#888"/><rect id="Rectangle 878" width="20" height="5" x="2.5" y="7.5" fill="#fff" stroke="#888"/><rect id="Rectangle 882" width="20" height="5" x="2.5" y="12.5" fill="#fff" stroke="#888"/><rect id="Rectangle 879" width="5" height="4" x="3" y="8" fill="#FFB628"/><rect id="Rectangle 883" width="10" height="4" x="3" y="13" fill="#FFB628"/><rect id="Rectangle 880" width="14" height="4" x="3" y="3" fill="#FFB628"/><rect id="Rectangle 882_2" width="20" height="5" x="2.5" y="17.5" fill="#fff" stroke="#888"/><rect id="Rectangle 883_2" width="19" height="4" x="3" y="18" fill="#FFB628"/></symbol><symbol id="color-scale-blue-white-red" viewBox="0 0 25 25"><rect id="Rectangle 874" width="20" height="5" x="2.5" y="2.5" stroke="#888"/><rect id="Rectangle 878" width="20" height="5" x="2.5" y="7.5" stroke="#888"/><rect id="Rectangle 882" width="20" height="5" x="2.5" y="12.5" stroke="#888"/><rect id="Rectangle 879" width="19" height="4" x="3" y="8" fill="#ABC3E3"/><rect id="Rectangle 883" width="19" height="4" x="3" y="13" fill="#fff"/><rect id="Rectangle 880" width="19" height="4" x="3" y="3" fill="#5A8AC6"/><rect id="Rectangle 882_2" width="20" height="5" x="2.5" y="17.5" stroke="#888"/><rect id="Rectangle 883_2" width="19" height="4" x="3" y="18" fill="#F8696B"/></symbol><symbol id="color-scale-green-white" viewBox="0 0 25 25"><rect id="Rectangle 874" width="20" height="5" x="2.5" y="2.5" stroke="#888"/><rect id="Rectangle 878" width="20" height="5" x="2.5" y="7.5" stroke="#888"/><rect id="Rectangle 882" width="20" height="5" x="2.5" y="12.5" stroke="#888"/><rect id="Rectangle 879" width="19" height="4" x="3" y="8" fill="#8ACE9C"/><rect id="Rectangle 883" width="19" height="4" x="3" y="13" fill="#D6EDDE"/><rect id="Rectangle 880" width="19" height="4" x="3" y="3" fill="#63BE7B"/><rect id="Rectangle 882_2" width="20" height="5" x="2.5" y="17.5" stroke="#888"/><rect id="Rectangle 883_2" width="19" height="4" x="3" y="18" fill="#fff"/></symbol><symbol id="color-scale-green-white-red" viewBox="0 0 25 25"><rect id="Rectangle 874" width="20" height="5" x="2.5" y="2.5" stroke="#888"/><rect id="Rectangle 878" width="20" height="5" x="2.5" y="7.5" stroke="#888"/><rect id="Rectangle 882" width="20" height="5" x="2.5" y="12.5" stroke="#888"/><rect id="Rectangle 879" width="19" height="4" x="3" y="8" fill="#B0DDBD"/><rect id="Rectangle 883" width="19" height="4" x="3" y="13" fill="#fff"/><rect id="Rectangle 880" width="19" height="4" x="3" y="3" fill="#63BE7B"/><rect id="Rectangle 882_2" width="20" height="5" x="2.5" y="17.5" stroke="#888"/><rect id="Rectangle 883_2" width="19" height="4" x="3" y="18" fill="#F8696B"/></symbol><symbol id="color-scale-green-yellow" viewBox="0 0 25 25"><rect id="Rectangle 874" width="20" height="5" x="2.5" y="2.5" stroke="#888"/><rect id="Rectangle 878" width="20" height="5" x="2.5" y="7.5" stroke="#888"/><rect id="Rectangle 882" width="20" height="5" x="2.5" y="12.5" stroke="#888"/><rect id="Rectangle 879" width="19" height="4" x="3" y="8" fill="#8ACB84"/><rect id="Rectangle 883" width="19" height="4" x="3" y="13" fill="#D8E394"/><rect id="Rectangle 880" width="19" height="4" x="3" y="3" fill="#63BE7B"/><rect id="Rectangle 882_2" width="20" height="5" x="2.5" y="17.5" stroke="#888"/><rect id="Rectangle 883_2" width="19" height="4" x="3" y="18" fill="#FFEF9C"/></symbol><symbol id="color-scale-green-yellow-red" viewBox="0 0 25 25"><rect id="Rectangle 874" width="20" height="5" x="2.5" y="2.5" stroke="#888"/><rect id="Rectangle 878" width="20" height="5" x="2.5" y="7.5" stroke="#888"/><rect id="Rectangle 882" width="20" height="5" x="2.5" y="12.5" stroke="#888"/><rect id="Rectangle 879" width="19" height="4" x="3" y="8" fill="#FFEB84"/><rect id="Rectangle 883" width="19" height="4" x="3" y="13" fill="#FBAA77"/><rect id="Rectangle 880" width="19" height="4" x="3" y="3" fill="#63BE7B"/><rect id="Rectangle 882_2" width="20" height="5" x="2.5" y="17.5" stroke="#888"/><rect id="Rectangle 883_2" width="19" height="4" x="3" y="18" fill="#F8696B"/></symbol><symbol id="color-scale-red-white" viewBox="0 0 25 25"><rect id="Rectangle 874" width="20" height="5" x="2.5" y="2.5" stroke="#888"/><rect id="Rectangle 878" width="20" height="5" x="2.5" y="7.5" stroke="#888"/><rect id="Rectangle 882" width="20" height="5" x="2.5" y="12.5" stroke="#888"/><rect id="Rectangle 879" width="19" height="4" x="3" y="8" fill="#F98E90"/><rect id="Rectangle 883" width="19" height="4" x="3" y="13" fill="#FBD8DA"/><rect id="Rectangle 880" width="19" height="4" x="3" y="3" fill="#F8696B"/><rect id="Rectangle 882_2" width="20" height="5" x="2.5" y="17.5" stroke="#888"/><rect id="Rectangle 883_2" width="19" height="4" x="3" y="18" fill="#fff"/></symbol><symbol id="color-scale-red-white-blue" viewBox="0 0 25 25"><rect id="Rectangle 874" width="20" height="5" x="2.5" y="2.5" stroke="#888"/><rect id="Rectangle 878" width="20" height="5" x="2.5" y="7.5" stroke="#888"/><rect id="Rectangle 882" width="20" height="5" x="2.5" y="12.5" stroke="#888"/><rect id="Rectangle 879" width="19" height="4" x="3" y="8" fill="#fff"/><rect id="Rectangle 883" width="19" height="4" x="3" y="13" fill="#ABC3E3"/><rect id="Rectangle 880" width="19" height="4" x="3" y="3" fill="#F8696B"/><rect id="Rectangle 882_2" width="20" height="5" x="2.5" y="17.5" stroke="#888"/><rect id="Rectangle 883_2" width="19" height="4" x="3" y="18" fill="#5A8AC6"/></symbol><symbol id="color-scale-red-white-green" viewBox="0 0 25 25"><rect id="Rectangle 874" width="20" height="5" x="2.5" y="2.5" stroke="#888"/><rect id="Rectangle 878" width="20" height="5" x="2.5" y="7.5" stroke="#888"/><rect id="Rectangle 882" width="20" height="5" x="2.5" y="12.5" stroke="#888"/><rect id="Rectangle 879" width="19" height="4" x="3" y="8" fill="#fff"/><rect id="Rectangle 883" width="19" height="4" x="3" y="13" fill="#B0DDBD"/><rect id="Rectangle 880" width="19" height="4" x="3" y="3" fill="#F8696B"/><rect id="Rectangle 882_2" width="20" height="5" x="2.5" y="17.5" stroke="#888"/><rect id="Rectangle 883_2" width="19" height="4" x="3" y="18" fill="#63BE7B"/></symbol><symbol id="color-scale-red-yellow-green" viewBox="0 0 25 25"><rect id="Rectangle 874" width="20" height="5" x="2.5" y="2.5" stroke="#888"/><rect id="Rectangle 878" width="20" height="5" x="2.5" y="7.5" stroke="#888"/><rect id="Rectangle 882" width="20" height="5" x="2.5" y="12.5" stroke="#888"/><rect id="Rectangle 879" width="19" height="4" x="3" y="8" fill="#FBAA77"/><rect id="Rectangle 883" width="19" height="4" x="3" y="13" fill="#FFEB84"/><rect id="Rectangle 880" width="19" height="4" x="3" y="3" fill="#F8696B"/><rect id="Rectangle 882_2" width="20" height="5" x="2.5" y="17.5" stroke="#888"/><rect id="Rectangle 883_2" width="19" height="4" x="3" y="18" fill="#63BE7B"/></symbol><symbol id="color-scale-white-green" viewBox="0 0 25 25"><rect id="Rectangle 874" width="20" height="5" x="2.5" y="2.5" stroke="#888"/><rect id="Rectangle 878" width="20" height="5" x="2.5" y="7.5" stroke="#888"/><rect id="Rectangle 882" width="20" height="5" x="2.5" y="12.5" stroke="#888"/><rect id="Rectangle 879" width="19" height="4" x="3" y="8" fill="#D6EDDE"/><rect id="Rectangle 883" width="19" height="4" x="3" y="13" fill="#8ACE9C"/><rect id="Rectangle 880" width="19" height="4" x="3" y="3" fill="#fff"/><rect id="Rectangle 882_2" width="20" height="5" x="2.5" y="17.5" stroke="#888"/><rect id="Rectangle 883_2" width="19" height="4" x="3" y="18" fill="#63BE7B"/></symbol><symbol id="color-scale-white-red" viewBox="0 0 25 25"><rect id="Rectangle 874" width="20" height="5" x="2.5" y="2.5" stroke="#888"/><rect id="Rectangle 878" width="20" height="5" x="2.5" y="7.5" stroke="#888"/><rect id="Rectangle 882" width="20" height="5" x="2.5" y="12.5" stroke="#888"/><rect id="Rectangle 879" width="19" height="4" x="3" y="8" fill="#FBD8DA"/><rect id="Rectangle 883" width="19" height="4" x="3" y="13" fill="#F98E90"/><rect id="Rectangle 880" width="19" height="4" x="3" y="3" fill="#fff"/><rect id="Rectangle 882_2" width="20" height="5" x="2.5" y="17.5" stroke="#888"/><rect id="Rectangle 883_2" width="19" height="4" x="3" y="18" fill="#F8696B"/></symbol><symbol id="color-scale-yellow-green" viewBox="0 0 25 25"><rect id="Rectangle 874" width="20" height="5" x="2.5" y="2.5" stroke="#888"/><rect id="Rectangle 878" width="20" height="5" x="2.5" y="7.5" stroke="#888"/><rect id="Rectangle 882" width="20" height="5" x="2.5" y="12.5" stroke="#888"/><rect id="Rectangle 879" width="19" height="4" x="3" y="8" fill="#D8E394"/><rect id="Rectangle 883" width="19" height="4" x="3" y="13" fill="#8ACB84"/><rect id="Rectangle 880" width="19" height="4" x="3" y="3" fill="#FFEF9C"/><rect id="Rectangle 882_2" width="20" height="5" x="2.5" y="17.5" stroke="#888"/><rect id="Rectangle 883_2" width="19" height="4" x="3" y="18" fill="#63BE7B"/></symbol><symbol id="bar-gradient-blue" viewBox="0 0 25 25"><rect id="Rectangle 874" width="20" height="5" x="2.5" y="2.5" fill="#fff" stroke="#888"/><rect id="Rectangle 878" width="20" height="5" x="2.5" y="7.5" fill="#fff" stroke="#888"/><rect id="Rectangle 882" width="20" height="5" x="2.5" y="12.5" fill="#fff" stroke="#888"/><rect id="Rectangle 879" width="5" height="4" x="3" y="8" fill="url(#paint0_linear)"/><rect id="Rectangle 883" width="10" height="4" x="3" y="13" fill="url(#paint1_linear)"/><rect id="Rectangle 880" width="14" height="4" x="3" y="3" fill="url(#paint2_linear)"/><rect id="Rectangle 882_2" width="20" height="5" x="2.5" y="17.5" fill="#fff" stroke="#888"/><rect id="Rectangle 883_2" width="19" height="4" x="3" y="18" fill="url(#paint3_linear)"/><defs><linearGradient id="paint0_linear" x1="3.75" x2="7.75" y1="10" y2="10.008" gradientUnits="userSpaceOnUse"><stop stop-color="#4D82B8"/><stop offset="1" stop-color="#fff" stop-opacity="0"/></linearGradient><linearGradient id="paint1_linear" x1="4.5" x2="12.5" y1="15" y2="15.03" gradientUnits="userSpaceOnUse"><stop stop-color="#4D82B8"/><stop offset="1" stop-color="#fff" stop-opacity="0"/></linearGradient><linearGradient id="paint2_linear" x1="5.1" x2="16.3" y1="5" y2="5.059" gradientUnits="userSpaceOnUse"><stop stop-color="#4D82B8"/><stop offset="1" stop-color="#fff" stop-opacity="0"/></linearGradient><linearGradient id="paint3_linear" x1="5.85" x2="21.049" y1="20" y2="20.108" gradientUnits="userSpaceOnUse"><stop stop-color="#4D82B8"/><stop offset="1" stop-color="#fff" stop-opacity="0"/></linearGradient></defs></symbol><symbol id="bar-gradient-green" viewBox="0 0 25 25"><rect id="Rectangle 874" width="20" height="5" x="2.5" y="2.5" fill="#fff" stroke="#888"/><rect id="Rectangle 878" width="20" height="5" x="2.5" y="7.5" fill="#fff" stroke="#888"/><rect id="Rectangle 882" width="20" height="5" x="2.5" y="12.5" fill="#fff" stroke="#888"/><rect id="Rectangle 879" width="5" height="4" x="3" y="8" fill="url(#paint10_linear)"/><rect id="Rectangle 883" width="10" height="4" x="3" y="13" fill="url(#paint11_linear)"/><rect id="Rectangle 880" width="14" height="4" x="3" y="3" fill="url(#paint12_linear)"/><rect id="Rectangle 882_2" width="20" height="5" x="2.5" y="17.5" fill="#fff" stroke="#888"/><rect id="Rectangle 883_2" width="19" height="4" x="3" y="18" fill="url(#paint13_linear)"/><defs><linearGradient id="paint10_linear" x1="3.75" x2="7.75" y1="10" y2="10" gradientUnits="userSpaceOnUse"><stop stop-color="#63C384"/><stop offset="1" stop-color="#fff" stop-opacity="0"/></linearGradient><linearGradient id="paint11_linear" x1="4.5" x2="12.5" y1="15" y2="15" gradientUnits="userSpaceOnUse"><stop stop-color="#63C384"/><stop offset="1" stop-color="#fff" stop-opacity="0"/></linearGradient><linearGradient id="paint12_linear" x1="5.1" x2="16.3" y1="5" y2="5" gradientUnits="userSpaceOnUse"><stop stop-color="#63C384"/><stop offset="1" stop-color="#fff" stop-opacity="0"/></linearGradient><linearGradient id="paint13_linear" x1="5.85" x2="21.05" y1="20" y2="20" gradientUnits="userSpaceOnUse"><stop stop-color="#63C384"/><stop offset="1" stop-color="#fff" stop-opacity="0"/></linearGradient></defs></symbol><symbol id="bar-gradient-lightblue" viewBox="0 0 25 25"><rect id="Rectangle 874" width="20" height="5" x="2.5" y="2.5" fill="#fff" stroke="#888"/><rect id="Rectangle 878" width="20" height="5" x="2.5" y="7.5" fill="#fff" stroke="#888"/><rect id="Rectangle 882" width="20" height="5" x="2.5" y="12.5" fill="#fff" stroke="#888"/><rect id="Rectangle 879" width="5" height="4" x="3" y="8" fill="url(#paint20_linear)"/><rect id="Rectangle 883" width="10" height="4" x="3" y="13" fill="url(#paint21_linear)"/><rect id="Rectangle 880" width="14" height="4" x="3" y="3" fill="url(#paint22_linear)"/><rect id="Rectangle 882_2" width="20" height="5" x="2.5" y="17.5" fill="#fff" stroke="#888"/><rect id="Rectangle 883_2" width="19" height="4" x="3" y="18" fill="url(#paint23_linear)"/><defs><linearGradient id="paint20_linear" x1="3.75" x2="7.75" y1="10" y2="10" gradientUnits="userSpaceOnUse"><stop stop-color="#008AEF"/><stop offset="1" stop-color="#fff" stop-opacity="0"/></linearGradient><linearGradient id="paint21_linear" x1="4.5" x2="12.5" y1="15" y2="15" gradientUnits="userSpaceOnUse"><stop stop-color="#008AEF"/><stop offset="1" stop-color="#fff" stop-opacity="0"/></linearGradient><linearGradient id="paint22_linear" x1="5.1" x2="16.3" y1="5" y2="5" gradientUnits="userSpaceOnUse"><stop stop-color="#008AEF"/><stop offset="1" stop-color="#fff" stop-opacity="0"/></linearGradient><linearGradient id="paint23_linear" x1="5.85" x2="21.05" y1="20" y2="20" gradientUnits="userSpaceOnUse"><stop stop-color="#008AEF"/><stop offset="1" stop-color="#fff" stop-opacity="0"/></linearGradient></defs></symbol><symbol id="bar-gradient-purple" viewBox="0 0 25 25"><rect id="Rectangle 874" width="20" height="5" x="2.5" y="2.5" fill="#fff" stroke="#888"/><rect id="Rectangle 878" width="20" height="5" x="2.5" y="7.5" fill="#fff" stroke="#888"/><rect id="Rectangle 882" width="20" height="5" x="2.5" y="12.5" fill="#fff" stroke="#888"/><rect id="Rectangle 879" width="5" height="4" x="3" y="8" fill="url(#paint30_linear)"/><rect id="Rectangle 883" width="10" height="4" x="3" y="13" fill="url(#paint31_linear)"/><rect id="Rectangle 880" width="14" height="4" x="3" y="3" fill="url(#paint32_linear)"/><rect id="Rectangle 882_2" width="20" height="5" x="2.5" y="17.5" fill="#fff" stroke="#888"/><rect id="Rectangle 883_2" width="19" height="4" x="3" y="18" fill="url(#paint33_linear)"/><defs><linearGradient id="paint30_linear" x1="3.25" x2="7.75" y1="10" y2="10" gradientUnits="userSpaceOnUse"><stop stop-color="#D6007B"/><stop offset="1" stop-color="#fff" stop-opacity="0"/></linearGradient><linearGradient id="paint31_linear" x1="3.5" x2="12.5" y1="15" y2="15" gradientUnits="userSpaceOnUse"><stop stop-color="#D6007B"/><stop offset="1" stop-color="#fff" stop-opacity="0"/></linearGradient><linearGradient id="paint32_linear" x1="3.7" x2="16.3" y1="5" y2="5" gradientUnits="userSpaceOnUse"><stop stop-color="#D6007B"/><stop offset="1" stop-color="#fff" stop-opacity="0"/></linearGradient><linearGradient id="paint33_linear" x1="3.95" x2="21.05" y1="20" y2="20" gradientUnits="userSpaceOnUse"><stop stop-color="#D6007B"/><stop offset="1" stop-color="#fff" stop-opacity="0"/></linearGradient></defs></symbol><symbol id="bar-gradient-red" viewBox="0 0 25 25"><rect id="Rectangle 874" width="20" height="5" x="2.5" y="2.5" fill="#fff" stroke="#888"/><rect id="Rectangle 878" width="20" height="5" x="2.5" y="7.5" fill="#fff" stroke="#888"/><rect id="Rectangle 882" width="20" height="5" x="2.5" y="12.5" fill="#fff" stroke="#888"/><rect id="Rectangle 879" width="5" height="4" x="3" y="8" fill="url(#paint40_linear)"/><rect id="Rectangle 883" width="10" height="4" x="3" y="13" fill="url(#paint41_linear)"/><rect id="Rectangle 880" width="14" height="4" x="3" y="3" fill="url(#paint42_linear)"/><rect id="Rectangle 882_2" width="20" height="5" x="2.5" y="17.5" fill="#fff" stroke="#888"/><rect id="Rectangle 883_2" width="19" height="4" x="3" y="18" fill="url(#paint43_linear)"/><defs><linearGradient id="paint40_linear" x1="3.75" x2="7.75" y1="10" y2="10" gradientUnits="userSpaceOnUse"><stop stop-color="#FF555A"/><stop offset="1" stop-color="#fff" stop-opacity="0"/></linearGradient><linearGradient id="paint41_linear" x1="4.5" x2="12.5" y1="15" y2="15" gradientUnits="userSpaceOnUse"><stop stop-color="#FF555A"/><stop offset="1" stop-color="#fff" stop-opacity="0"/></linearGradient><linearGradient id="paint42_linear" x1="5.1" x2="16.3" y1="5" y2="5" gradientUnits="userSpaceOnUse"><stop stop-color="#FF555A"/><stop offset="1" stop-color="#fff" stop-opacity="0"/></linearGradient><linearGradient id="paint43_linear" x1="5.85" x2="21.05" y1="20" y2="20" gradientUnits="userSpaceOnUse"><stop stop-color="#FF555A"/><stop offset="1" stop-color="#fff" stop-opacity="0"/></linearGradient></defs></symbol><symbol id="bar-gradient-yellow" viewBox="0 0 25 25"><rect id="Rectangle 874" width="20" height="5" x="2.5" y="2.5" fill="#fff" stroke="#888"/><rect id="Rectangle 878" width="20" height="5" x="2.5" y="7.5" fill="#fff" stroke="#888"/><rect id="Rectangle 882" width="20" height="5" x="2.5" y="12.5" fill="#fff" stroke="#888"/><rect id="Rectangle 879" width="5" height="4" x="3" y="8" fill="url(#paint50_linear)"/><rect id="Rectangle 883" width="10" height="4" x="3" y="13" fill="url(#paint51_linear)"/><rect id="Rectangle 880" width="14" height="4" x="3" y="3" fill="url(#paint52_linear)"/><rect id="Rectangle 882_2" width="20" height="5" x="2.5" y="17.5" fill="#fff" stroke="#888"/><rect id="Rectangle 883_2" width="19" height="4" x="3" y="18" fill="url(#paint53_linear)"/><defs><linearGradient id="paint50_linear" x1="3.75" x2="7.75" y1="10" y2="10.008" gradientUnits="userSpaceOnUse"><stop stop-color="#FFB628"/><stop offset="1" stop-color="#fff" stop-opacity="0"/></linearGradient><linearGradient id="paint51_linear" x1="4.5" x2="12.5" y1="15" y2="15.03" gradientUnits="userSpaceOnUse"><stop stop-color="#FFB628"/><stop offset="1" stop-color="#fff" stop-opacity="0"/></linearGradient><linearGradient id="paint52_linear" x1="5.1" x2="16.3" y1="5" y2="5.059" gradientUnits="userSpaceOnUse"><stop stop-color="#FFB628"/><stop offset="1" stop-color="#fff" stop-opacity="0"/></linearGradient><linearGradient id="paint53_linear" x1="5.85" x2="21.049" y1="20" y2="20.108" gradientUnits="userSpaceOnUse"><stop stop-color="#FFB628"/><stop offset="1" stop-color="#fff" stop-opacity="0"/></linearGradient></defs></symbol></svg>