<svg xmlns="http://www.w3.org/2000/svg" width="20" height="20" fill="none" viewBox="0 0 20 20"><g opacity=".4"><mask id="mask0_6414_82869" style="mask-type:alpha" width="8" height="8" x="10" y="2" maskUnits="userSpaceOnUse"><path fill="#C4C4C4" fill-rule="evenodd" d="M18 10C18 5.58172 14.4183 2 10 2V5H11V6V9H14V10H18Z" clip-rule="evenodd" opacity=".4"/></mask><g mask="url(#mask0_6414_82869)"><rect width="11" height="11" x="8" y="2" fill="#000"/></g></g><path fill="#000" fill-rule="evenodd" d="M10 3C13.866 3 17 6.13401 17 10L14 10V11H16.9291C16.4439 14.3923 13.5265 17 10 17C6.13401 17 3 13.866 3 10C3 6.47353 5.60771 3.55612 9 3.07089V5H10V3ZM18 10C18 14.4183 14.4183 18 10 18C5.58172 18 2 14.4183 2 10C2 5.58172 5.58172 2 10 2C14.4183 2 18 5.58172 18 10ZM9 10V6H10V10L13 10V11H10H9V10Z" clip-rule="evenodd"/></svg>