<svg xmlns="http://www.w3.org/2000/svg" width="20" height="20" fill="none" viewBox="0 0 20 20"><rect width="2" height="2" x="15.5" y="3.5" stroke="#000" transform="rotate(90 15.5 3.5)"/><rect width="2" height="2" x="5.5" y="3.5" stroke="#000" transform="rotate(90 5.5 3.5)"/><rect width="2" height="2" x="15.5" y="14.5" stroke="#000" transform="rotate(90 15.5 14.5)"/><rect width="2" height="2" x="5.5" y="14.5" stroke="#000" transform="rotate(90 5.5 14.5)"/><rect width="2" height="5" x="11" y="9" fill="#000" transform="rotate(90 11 9)"/><rect width="2" height="6" x="13" y="13" fill="#000" transform="rotate(-180 13 13)"/><rect width="7" height="1" x="6" y="4" fill="#000"/><rect width="7" height="1" x="6" y="15" fill="#000"/><rect width="8" height="1" x="5" y="6" fill="#000" transform="rotate(90 5 6)"/><rect width="8" height="1" x="15" y="6" fill="#000" transform="rotate(90 15 6)"/></svg>