<svg xmlns="http://www.w3.org/2000/svg" width="20" height="20" fill="none" viewBox="0 0 20 20"><path fill="#000" d="M13 3H3V4H13V3Z"/><path fill="#000" d="M10 6H3V7H10V6Z"/><path fill="#000" d="M3 9H13V10H3V9Z"/><path fill="#000" d="M13 15H3V16H13V15Z"/><path fill="#000" d="M16 15H17V16H16V15Z"/><path fill="#000" d="M17 12H16V13H17V12Z"/><path fill="#000" d="M16 9H17V10H16V9Z"/><path fill="#000" d="M17 6H16V7H17V6Z"/><path fill="#000" d="M16 3H17V4H16V3Z"/><path fill="#000" d="M10 12H3V13H10V12Z"/></svg>